<svg width="19" height="25" viewBox="0 0 19 25" fill="none" xmlns="http://www.w3.org/2000/svg">
<path d="M3.70005 3.79999C3.70005 3.03087 4.00558 2.29324 4.54944 1.74938C5.09329 1.20553 5.83092 0.899994 6.60005 0.899994H15.3C16.0692 0.899994 16.8068 1.20553 17.3507 1.74938C17.8945 2.29324 18.2 3.03087 18.2 3.79999V18.3C18.2 19.0691 17.8945 19.8067 17.3507 20.3506C16.8068 20.8945 16.0692 21.2 15.3 21.2H6.60005C5.83092 21.2 5.09329 20.8945 4.54944 20.3506C4.00558 19.8067 3.70005 19.0691 3.70005 18.3V3.79999ZM0.800049 6.69999C0.800062 6.19095 0.934066 5.69088 1.18859 5.25004C1.44312 4.80919 1.8092 4.44312 2.25005 4.18859V19.025C2.25005 19.9864 2.63197 20.9084 3.31179 21.5883C3.99161 22.2681 4.91364 22.65 5.87505 22.65H14.9114C14.6569 23.0908 14.2908 23.4569 13.85 23.7114C13.4092 23.966 12.9091 24.1 12.4 24.1H5.87505C4.52907 24.1 3.23823 23.5653 2.28648 22.6136C1.33474 21.6618 0.800049 20.371 0.800049 19.025V6.69999Z" fill="#606060"/>
</svg>
