<svg width="29" height="21" viewBox="0 0 29 21" fill="none" xmlns="http://www.w3.org/2000/svg">
<path d="M28.8018 1.15958C28.6339 0.919591 28.3776 0.756045 28.0892 0.704845C27.8008 0.653646 27.5039 0.718976 27.2636 0.886495L0.196958 19.8404C0.39875 20.1244 0.725 20.3117 1.09958 20.3117H27.9004C28.5082 20.3117 29 19.8162 29 19.2072V1.77583C28.9944 1.55567 28.9256 1.34176 28.8018 1.15958ZM1.73517 0.886495C1.57115 0.770309 1.37843 0.701302 1.17795 0.686972C0.977465 0.672642 0.776888 0.713538 0.598018 0.805215C0.419148 0.896892 0.268828 1.03584 0.163395 1.20697C0.0579617 1.37809 0.00144949 1.57484 0 1.77583L0 19.2362L12.8857 8.68024L1.73638 0.886495V0.884077L1.73517 0.886495Z" fill="#606060"/>
</svg>
