<svg width="76" height="55" viewBox="0 0 76 55" fill="none" xmlns="http://www.w3.org/2000/svg">
<path d="M75.4999 23.1787L70.4772 5.80575L50.0906 0.404743L35.7314 15.8512L15.3448 10.4502L0.985573 25.8967L6.00832 43.2696L46.7814 54.0716L75.4999 23.1787ZM28.3213 29.2886L21.3721 31.2977L23.3812 38.2469L19.9066 39.2514L17.8975 32.3023L10.9484 34.3114L9.94383 30.8368L16.893 28.8277L14.8839 21.8785L18.3585 20.874L20.3676 27.8231L27.3167 25.814L28.3213 29.2886ZM51.1779 30.2105C49.2669 30.763 47.2512 29.6515 46.6987 27.7405C46.1462 25.8294 47.2578 23.8138 49.1688 23.2613C51.0798 22.7088 53.0954 23.8203 53.6479 25.7314C54.2004 27.6424 53.0889 29.658 51.1779 30.2105ZM59.5925 20.2477C57.6815 20.8002 55.6659 19.6887 55.1134 17.7776C54.5609 15.8666 55.6724 13.851 57.5834 13.2985C59.4944 12.746 61.51 13.8575 62.0625 15.7686C62.615 17.6796 61.5035 19.6952 59.5925 20.2477Z" fill="#EF7777"/>
</svg>
