<svg width="34" height="24" viewBox="0 0 34 24" fill="none" xmlns="http://www.w3.org/2000/svg">
<path d="M33.6666 13.6666V5.33331L25.3333 0.333313L17 5.33331L8.66665 0.333313L0.333313 5.33331V13.6666L17 23.6666L33.6666 13.6666ZM12 10.3333H8.66665V13.6666H6.99998V10.3333H3.66665V8.66665H6.99998V5.33331H8.66665V8.66665H12V10.3333ZM22 13.6666C21.0833 13.6666 20.3333 12.9166 20.3333 12C20.3333 11.0833 21.0833 10.3333 22 10.3333C22.9166 10.3333 23.6666 11.0833 23.6666 12C23.6666 12.9166 22.9166 13.6666 22 13.6666ZM27 10.3333C26.0833 10.3333 25.3333 9.58331 25.3333 8.66665C25.3333 7.74998 26.0833 6.99998 27 6.99998C27.9166 6.99998 28.6666 7.74998 28.6666 8.66665C28.6666 9.58331 27.9166 10.3333 27 10.3333Z" fill="white"/>
</svg>
