<svg width="16" height="16" viewBox="0 0 16 16" fill="none" xmlns="http://www.w3.org/2000/svg">
<path d="M6 0.277993C6.09761 0.396606 6.15741 0.541765 6.17168 0.694716C6.18594 0.847667 6.154 1.00138 6.08 1.13599C5.50186 2.19747 5.19993 3.38729 5.202 4.59599C5.202 8.61699 8.48 11.873 12.52 11.873C13.047 11.873 13.56 11.818 14.053 11.713C14.2041 11.6803 14.3615 11.6928 14.5056 11.749C14.6497 11.8052 14.774 11.9026 14.863 12.029C14.957 12.1604 15.0049 12.3193 14.9993 12.4808C14.9937 12.6423 14.9349 12.7974 14.832 12.922C14.0477 13.8854 13.0582 14.6617 11.9358 15.1942C10.8134 15.7267 9.58632 16.002 8.344 16C3.734 16 0 12.286 0 7.70999C0 4.26599 2.114 1.31199 5.124 0.0599933C5.27394 -0.00337482 5.44039 -0.0163809 5.59835 0.022929C5.75631 0.0622388 5.89725 0.151742 6 0.277993Z" fill="black"/>
<path d="M10.7941 3.148C10.8084 3.10469 10.836 3.06701 10.873 3.0403C10.91 3.01359 10.9544 2.99921 11.0001 2.99921C11.0457 2.99921 11.0901 3.01359 11.1271 3.0403C11.1641 3.06701 11.1917 3.10469 11.2061 3.148L11.5931 4.31C11.7661 4.828 12.1721 5.234 12.6901 5.407L13.8521 5.794C13.8954 5.80834 13.933 5.83596 13.9598 5.87294C13.9865 5.90992 14.0008 5.95438 14.0008 6C14.0008 6.04562 13.9865 6.09007 13.9598 6.12705C13.933 6.16404 13.8954 6.19166 13.8521 6.206L12.6901 6.593C12.4346 6.67811 12.2024 6.82156 12.012 7.01197C11.8216 7.20238 11.6782 7.43452 11.5931 7.69L11.2061 8.852C11.1917 8.8953 11.1641 8.93299 11.1271 8.9597C11.0901 8.98641 11.0457 9.00078 11.0001 9.00078C10.9544 9.00078 10.91 8.98641 10.873 8.9597C10.836 8.93299 10.8084 8.8953 10.7941 8.852L10.4071 7.69C10.3219 7.43452 10.1785 7.20238 9.98808 7.01197C9.79767 6.82156 9.56553 6.67811 9.31006 6.593L8.14805 6.206C8.10475 6.19166 8.06706 6.16404 8.04035 6.12705C8.01364 6.09007 7.99927 6.04562 7.99927 6C7.99927 5.95438 8.01364 5.90992 8.04035 5.87294C8.06706 5.83596 8.10475 5.80834 8.14805 5.794L9.31006 5.407C9.56553 5.32188 9.79767 5.17843 9.98808 4.98802C10.1785 4.79761 10.3219 4.56547 10.4071 4.31L10.7941 3.148ZM13.8631 0.098998C13.8729 0.0705243 13.8914 0.0458339 13.916 0.0283596C13.9405 0.0108853 13.9699 0.00149536 14.0001 0.00149536C14.0302 0.00149536 14.0596 0.0108853 14.0841 0.0283596C14.1087 0.0458339 14.1272 0.0705243 14.1371 0.098998L14.3951 0.872998C14.5101 1.219 14.7811 1.49 15.1271 1.605L15.9011 1.863C15.9295 1.87287 15.9542 1.89137 15.9717 1.91592C15.9892 1.94047 15.9986 1.96986 15.9986 2C15.9986 2.03013 15.9892 2.05952 15.9717 2.08407C15.9542 2.10863 15.9295 2.12713 15.9011 2.137L15.1271 2.395C14.9565 2.45172 14.8016 2.54741 14.6745 2.67448C14.5475 2.80155 14.4518 2.95649 14.3951 3.127L14.1371 3.901C14.1272 3.92947 14.1087 3.95416 14.0841 3.97164C14.0596 3.98911 14.0302 3.9985 14.0001 3.9985C13.9699 3.9985 13.9405 3.98911 13.916 3.97164C13.8914 3.95416 13.8729 3.92947 13.8631 3.901L13.6051 3.127C13.5483 2.95649 13.4526 2.80155 13.3256 2.67448C13.1985 2.54741 13.0436 2.45172 12.8731 2.395L12.0991 2.137C12.0706 2.12713 12.0459 2.10863 12.0284 2.08407C12.0109 2.05952 12.0016 2.03013 12.0016 2C12.0016 1.96986 12.0109 1.94047 12.0284 1.91592C12.0459 1.89137 12.0706 1.87287 12.0991 1.863L12.8731 1.605C13.2191 1.49 13.4901 1.219 13.6051 0.872998L13.8631 0.099998V0.098998Z" fill="black"/>
</svg>
