<svg width="72" height="98" viewBox="0 0 72 98" fill="none" xmlns="http://www.w3.org/2000/svg">
<path d="M6.50354 10.8499C2.18082 11.9447 -0.460185 16.3773 0.634647 20.7L18.5501 91.4354C19.078 93.5199 20.4124 95.3093 22.2596 96.4099C24.1069 97.5105 26.3157 97.8323 28.4002 97.3043L55.9084 90.3372C66.7545 87.5902 73.3277 76.5581 70.5807 65.712L55.6511 6.76575C55.1232 4.68128 53.7888 2.89191 51.9416 1.79128C50.0943 0.690654 47.8855 0.368919 45.801 0.89686L6.50354 10.8499ZM13.4192 21.6438L44.8572 13.6814L51.8243 41.1896L20.3863 49.1521L13.4192 21.6438ZM27.302 59.946L31.2317 58.9507L33.2223 66.8102L41.0818 64.8196L42.0771 68.7493L34.2176 70.7399L36.2082 78.5994L32.2785 79.5947L30.2879 71.7352L22.4284 73.7258L21.4331 69.7961L29.2926 67.8055L27.302 59.946ZM55.8055 56.9086C57.9669 56.3612 60.1831 57.6817 60.7306 59.8431C61.278 62.0044 59.9575 64.2207 57.7961 64.7681C55.6347 65.3155 53.4185 63.995 52.8711 61.8337C52.3236 59.6723 53.6441 57.456 55.8055 56.9086ZM49.9366 66.7587C52.098 66.2113 54.3142 67.5318 54.8617 69.6932C55.4091 71.8545 54.0886 74.0708 51.9272 74.6182C49.7659 75.1656 47.5496 73.8451 47.0022 71.6838C46.4547 69.5224 47.7752 67.3061 49.9366 66.7587Z" fill="#FF7575"/>
</svg>
