<svg width="27" height="27" viewBox="0 0 27 27" fill="none" xmlns="http://www.w3.org/2000/svg">
<path d="M0.8125 18.9375C0.8125 18.4568 1.00346 17.9958 1.34337 17.6559C1.68328 17.316 2.1443 17.125 2.625 17.125H6.25C6.7307 17.125 7.19172 17.316 7.53163 17.6559C7.87154 17.9958 8.0625 18.4568 8.0625 18.9375V24.375C8.0625 24.8557 7.87154 25.3167 7.53163 25.6566C7.19172 25.9965 6.7307 26.1875 6.25 26.1875H2.625C2.1443 26.1875 1.68328 25.9965 1.34337 25.6566C1.00346 25.3167 0.8125 24.8557 0.8125 24.375V18.9375ZM9.875 11.6875C9.875 11.2068 10.066 10.7458 10.4059 10.4059C10.7458 10.066 11.2068 9.875 11.6875 9.875H15.3125C15.7932 9.875 16.2542 10.066 16.5941 10.4059C16.934 10.7458 17.125 11.2068 17.125 11.6875V24.375C17.125 24.8557 16.934 25.3167 16.5941 25.6566C16.2542 25.9965 15.7932 26.1875 15.3125 26.1875H11.6875C11.2068 26.1875 10.7458 25.9965 10.4059 25.6566C10.066 25.3167 9.875 24.8557 9.875 24.375V11.6875ZM18.9375 2.625C18.9375 2.1443 19.1285 1.68328 19.4684 1.34337C19.8083 1.00346 20.2693 0.8125 20.75 0.8125H24.375C24.8557 0.8125 25.3167 1.00346 25.6566 1.34337C25.9965 1.68328 26.1875 2.1443 26.1875 2.625V24.375C26.1875 24.8557 25.9965 25.3167 25.6566 25.6566C25.3167 25.9965 24.8557 26.1875 24.375 26.1875H20.75C20.2693 26.1875 19.8083 25.9965 19.4684 25.6566C19.1285 25.3167 18.9375 24.8557 18.9375 24.375V2.625Z" fill="#606060"/>
</svg>
